<svg xmlns="http://www.w3.org/2000/svg" viewBox="0 0 108.75 108.75"><defs><style>.cls-1{fill:#0079f2;}.cls-2{fill:#0067bc;}</style></defs><g id="Layer_2" data-name="Layer 2"><g id="Layer_1-2" data-name="Layer 1"><path class="cls-1" d="M54.38,85.88A31.47,31.47,0,0,0,82.61,40.44l-11,11a16.86,16.86,0,0,1,.27,3,17.47,17.47,0,0,1-29.1,13.07L67.45,42.78h0l9.91-9.91h0l4.43-4.43L82.53,7.9l-17,17-12,12-16.6,16.6-12,12-2,2,8.92,8.92.47.47.51.51v0A31.38,31.38,0,0,0,54.38,85.88Z"/><path class="cls-2" d="M108.75,54.38a54.13,54.13,0,0,0-9.46-30.62L89.15,33.9a40.41,40.41,0,1,1-16.9-15.71L82.53,7.9a54.35,54.35,0,1,0,26.22,46.48Z"/></g></g></svg>