<svg xmlns="http://www.w3.org/2000/svg" viewBox="0 0 464.13 108.75"><defs><style>.cls-1{fill:#444;}.cls-2{fill:#0079f2;}.cls-3{fill:#0067bc;}</style></defs><g id="Layer_2" data-name="Layer 2"><g id="Layer_1-2" data-name="Layer 1"><path class="cls-1" d="M154.44,94.11A19.91,19.91,0,0,1,142,90,3,3,0,0,1,139,93h-6.17a3,3,0,0,1-3-3V24.28a3,3,0,0,1,3-3h6.36a3,3,0,0,1,3,3v18.6a21.19,21.19,0,0,1,13-4c14,0,23.47,11.12,23.47,27.68C178.66,82.77,168.7,94.11,154.44,94.11Zm-.19-43.46c-7.66,0-12.23,6-12.23,16,0,7.91,3.69,15.88,11.95,15.88,7.27,0,12.15-6.42,12.15-16S161.46,50.65,154.25,50.65Z"/><path class="cls-1" d="M184.9,93a3,3,0,0,1-3-3V43a3,3,0,0,1,3-3h6.27a3,3,0,0,1,3,3v1.39A16.93,16.93,0,0,1,206,39.5a15.37,15.37,0,0,1,3.2.36,3,3,0,0,1,2.32,2.92v6.27a3,3,0,0,1-3,3,4,4,0,0,1-.49,0,12.92,12.92,0,0,0-1.84-.15c-5.75,0-9.34,5.17-10.78,10a28.45,28.45,0,0,0-1.18,8.3V90a3,3,0,0,1-3,3Z"/><path class="cls-1" d="M218.18,93a3,3,0,0,1-3-3V43a3,3,0,0,1,3-3h6.36a3,3,0,0,1,3,3V90a3,3,0,0,1-3,3ZM218,35.22a3,3,0,0,1-3-3V24.28a3,3,0,0,1,3-3h6.64a3,3,0,0,1,3,3v7.94a3,3,0,0,1-3,3Z"/><path class="cls-1" d="M258.18,94.11c-16,0-27.59-11.6-27.59-27.58s11-27.68,26.18-27.68c13.54,0,22.63,9.92,22.63,24.69,0,1.21-.17,3.29-.19,3.53a3,3,0,0,1-3,2.74H243.41c1.51,9.23,8.74,12.6,15,12.6a19,19,0,0,0,12.19-4.83,3,3,0,0,1,2.11-.87,2.34,2.34,0,0,1,.38,0,3,3,0,0,1,2.2,1.43l2.9,4.86a3,3,0,0,1-.5,3.7A29.87,29.87,0,0,1,258.18,94.11Zm8.42-35.54c-1.53-7.5-7.36-8.39-10-8.39a12.63,12.63,0,0,0-12.3,8.39Z"/><path class="cls-1" d="M284.71,40.53c.39-18.28,14.8-19.72,19.26-19.72a21,21,0,0,1,3.39.23,3,3,0,0,1,2.51,3v5.7a3,3,0,0,1-3,3,2.88,2.88,0,0,1-.59-.06h0a10.06,10.06,0,0,0-1.66-.13c-4.86,0-7.34,2.63-7.55,8h9.05a3,3,0,0,1,3,3v5.33a3,3,0,0,1-3,3h-9.06V90a3,3,0,0,1-3,3H287.7a3,3,0,0,1-3-3Z"/><path class="cls-1" d="M334.5,94.11c-16,0-27.68-11.6-27.68-27.58,0-15.78,11.9-27.68,27.68-27.68,12.74,0,19.22,7.47,19.49,7.79a3,3,0,0,1,.18,3.64l-3.27,4.77a3,3,0,0,1-2.26,1.29h-.22a3,3,0,0,1-2.21-1,17.05,17.05,0,0,0-11.53-4.73c-8.87,0-15.32,6.67-15.32,15.88s6.52,15.88,15.51,15.88a17.54,17.54,0,0,0,12.75-5.57,3.05,3.05,0,0,1,2.3-1.06h.26a3,3,0,0,1,2.33,1.47l2.9,4.95a3,3,0,0,1-.32,3.47C354.8,86,347.69,94.11,334.5,94.11Z"/><path class="cls-1" d="M376.56,94.11c-9.43,0-19-5.81-19-16.93,0-12.69,10.54-19.17,31.33-19.26-.47-5.14-3.12-7.37-8.61-7.37a20.18,20.18,0,0,0-11.39,3.82A3,3,0,0,1,367,55a2.92,2.92,0,0,1-.51,0,3,3,0,0,1-2-1.38l-3-4.86a3,3,0,0,1,.59-3.84c.29-.25,7.15-6.06,18.7-6.06,13.07,0,20.57,7.67,20.57,21V90a3,3,0,0,1-3,3h-6.08a3,3,0,0,1-3-3v-.27A19.42,19.42,0,0,1,376.56,94.11Zm12.39-25c-13,0-18.83,2.41-18.83,7.66,0,2.93,2.31,5.88,7.47,5.88C384.64,82.69,388.57,75.11,389,69.15Z"/><path class="cls-1" d="M409,93a3,3,0,0,1-3-3V43a3,3,0,0,1,3-3h6.27a3,3,0,0,1,3,3v1.39a16.93,16.93,0,0,1,11.86-4.86,15.37,15.37,0,0,1,3.2.36,3,3,0,0,1,2.32,2.92v6.27a3,3,0,0,1-3,3,4,4,0,0,1-.49,0,12.92,12.92,0,0,0-1.84-.15c-5.75,0-9.34,5.17-10.78,10a28.12,28.12,0,0,0-1.18,8.3V90a3,3,0,0,1-3,3Z"/><path class="cls-1" d="M439.16,30a3,3,0,0,1,3-3h6.26a3,3,0,0,1,3,3V40.53h8.78a3,3,0,0,1,3,3v5.33a3,3,0,0,1-3,3h-8.78V72.23c0,6.35,2.47,9.43,7.56,9.43a8.88,8.88,0,0,0,1.53-.12,3,3,0,0,1,3.62,2.93v5.71a3,3,0,0,1-2.46,2.95,20.43,20.43,0,0,1-3.25.23c-5.82,0-19.36-2-19.36-20.48Z"/><path class="cls-2" d="M54.38,85.88A31.47,31.47,0,0,0,82.61,40.44l-11,11a16.86,16.86,0,0,1,.27,3,17.47,17.47,0,0,1-29.1,13.07L67.45,42.78h0l9.91-9.91h0l4.43-4.43L82.53,7.9l-17,17-12,12-16.6,16.6-12,12-2,2,8.92,8.92.47.47.51.51v0A31.38,31.38,0,0,0,54.38,85.88Z"/><path class="cls-3" d="M108.75,54.38a54.13,54.13,0,0,0-9.46-30.62L89.15,33.9a40.41,40.41,0,1,1-16.9-15.71L82.53,7.9a54.35,54.35,0,1,0,26.22,46.48Z"/></g></g></svg>