<svg xmlns="http://www.w3.org/2000/svg" viewBox="0 0 440.4 108.75"><defs><style>.cls-1{fill:#0067bc;}.cls-2{fill:#444;}</style></defs><g id="Layer_2" data-name="Layer 2"><g id="Layer_1-2" data-name="Layer 1"><path class="cls-1" d="M108.75,54.38a54.13,54.13,0,0,0-9.46-30.62L89.15,33.9a40.41,40.41,0,1,1-16.9-15.71L82.53,7.9a54.35,54.35,0,1,0,26.22,46.48Z"/><path class="cls-2" d="M151.61,41.74v8.14c-1.3-.08-1.87-.08-2.31-.08-7.7,0-11.37,3.53-12.31,9V79.33h-9.22V41.88H137v8.36c1.15-5,5-8.72,11.59-8.72A16.56,16.56,0,0,1,151.61,41.74Z"/><path class="cls-2" d="M189.62,63.56H162.84c.72,6.62,4.17,9.36,9.79,9.36,4.11,0,6.48-1.23,7.85-3.67h8.14c-2.38,7.2-7.85,10.58-16.49,10.58S154,74.36,154,60.75s9.43-19.23,18.22-19.23c9.22,0,17.5,5.55,17.5,20.16A14.78,14.78,0,0,1,189.62,63.56Zm-8.71-5.76c-.14-5.84-3.31-9.36-8.71-9.36-5.11,0-8.57,3.09-9.36,9.36Z"/><path class="cls-2" d="M230.16,73.71V79a7.35,7.35,0,0,1-3.38.57c-4.32,0-7.56-1.8-7.56-5.76v-.93c-.65,1.15-4,6.91-12.89,6.91-6.63,0-12.53-3.38-12.53-11.45,0-7.92,6.26-9.79,13.61-11.09,4.25-.72,8.64-1.22,10.87-2.52v-.14c0-5.33-3.31-6.34-6.77-6.34-3.74,0-6.34,1.23-6.91,4.61H196c.65-7.49,6-11.38,15.62-11.38,11.31,0,15.92,4.47,15.92,15.27V70.54C227.5,72.63,228.43,73.64,230.16,73.71ZM218.28,60.32c-2.52,1.22-5.69,1.65-9.51,2.44-4.24.94-5.76,2.45-5.76,5.33s1.8,5.12,5.76,5.12a11.08,11.08,0,0,0,9.51-5.69Z"/><path class="cls-2" d="M259.39,66.51h8.35C265.8,77.09,258,79.83,251.4,79.83c-8.57,0-18.15-5.18-18.15-19.15s9.51-19.16,18.08-19.16c6.77,0,14,2.67,16,13H259C258,51.17,256,49,251.4,49c-5.47,0-9.29,4-9.29,11.67s3.89,11.66,9.36,11.66C256.15,72.34,258.31,70,259.39,66.51Z"/><path class="cls-2" d="M294,72.05v6.7a19.56,19.56,0,0,1-6.48,1c-6,0-10.58-1.73-10.58-9.87V49.16h-6V41.88h6V32.52h9.21v9.36h7.49v7.28h-7.49V68.89c0,2.23.94,3.67,4,3.67A17.36,17.36,0,0,0,294,72.05Z"/><path class="cls-2" d="M342.63,54.12c0,16.13-8.21,25.21-24.34,25.21H300V28.92h18.29C334.42,28.92,342.63,38,342.63,54.12Zm-9.65,0c0-11.73-4.25-16.85-15.63-16.85h-7.78V71h7.78C328.73,71,333,65.86,333,54.12Z"/><path class="cls-2" d="M391.51,54.12c0,16.13-8.21,25.21-24.34,25.21H348.88V28.92h18.29C383.3,28.92,391.51,38,391.51,54.12Zm-9.65,0c0-11.73-4.25-16.85-15.62-16.85h-7.78V71h7.78C377.61,71,381.86,65.86,381.86,54.12Z"/><path class="cls-2" d="M440.4,54.12c0,16.13-8.21,25.21-24.34,25.21H397.77V28.92h18.29C432.19,28.92,440.4,38,440.4,54.12Zm-9.65,0c0-11.73-4.25-16.85-15.63-16.85h-7.77V71h7.77C426.5,71,430.75,65.86,430.75,54.12Z"/></g></g></svg>