<svg xmlns="http://www.w3.org/2000/svg" viewBox="0 0 64 64" aria-labelledby="title"
aria-describedby="desc" role="img" xmlns:xlink="http://www.w3.org/1999/xlink">
  <title>Edit Window</title>
  <desc>A color styled icon from Orion Icon Library.</desc>
  <path data-name="layer5"
  fill="#a6b1c9" d="M2 5h52v12H2z"></path>
  <circle data-name="layer4" cx="8" cy="11" r="1" fill="#f27e7c"></circle>
  <circle data-name="layer4" cx="15" cy="11" r="1" fill="#f27e7c"></circle>
  <circle data-name="layer4" cx="22" cy="11" r="1" fill="#f27e7c"></circle>
  <path data-name="layer3" fill="#fff" d="M2 17v32h31.7L54 28V17"></path>
  <path data-name="opacity" fill="#000064" opacity=".15" d="M50.1 32l-3-3-20 20h6.6l16.4-17z"></path>
  <path data-name="layer2" fill="#f7e7cb" d="M29.8 59l11.4-4.3-7-7L29.8 59z"></path>
  <path data-name="layer1" fill="#78d1f4" d="M55 27L34.2 47.7l7 7L62 34l-7-7z"></path>
  <path data-name="opacity" fill="#000064" opacity=".15" d="M2 17h4v32H2zM2 5h4v12H2z"></path>
  <path data-name="stroke" fill="none" stroke="#2e4369" stroke-linecap="round"
  stroke-linejoin="round" stroke-width="2" d="M55 27L34.2 47.7 29.8 59l11.4-4.3L62 34l-7-7zM34.2 47.7l7 7"></path>
  <circle data-name="stroke" cx="8" cy="11" r="1" fill="none" stroke="#2e4369"
  stroke-linecap="round" stroke-linejoin="round" stroke-width="2"></circle>
  <circle data-name="stroke" cx="15" cy="11" r="1" fill="none"
  stroke="#2e4369" stroke-linecap="round" stroke-linejoin="round" stroke-width="2"></circle>
  <circle data-name="stroke" cx="22" cy="11" r="1" fill="none"
  stroke="#2e4369" stroke-linecap="round" stroke-linejoin="round" stroke-width="2"></circle>
  <path data-name="stroke" fill="none" stroke="#2e4369" stroke-linecap="round"
  stroke-linejoin="round" stroke-width="2" d="M2 5h52v12H2zm52 23V17M2 17v32h32"></path>
</svg>
